<mxfile host="Electron" modified="2023-12-17T22:19:07.667Z" agent="Mozilla/5.0 (Windows NT 10.0; Win64; x64) AppleWebKit/537.36 (KHTML, like Gecko) draw.io/22.0.3 Chrome/114.0.5735.289 Electron/25.8.4 Safari/537.36" etag="gvoTXFYKfbAQx_0iyx8E" version="22.0.3" type="device">
  <diagram name="PÃ¡gina-1" id="O-cbLS-l9ExnHLDeK4IT">
    <mxGraphModel dx="2620" dy="2224" grid="1" gridSize="10" guides="1" tooltips="1" connect="1" arrows="1" fold="1" page="1" pageScale="1" pageWidth="827" pageHeight="1169" math="0" shadow="0">
      <root>
        <mxCell id="0" />
        <mxCell id="1" parent="0" />
        <mxCell id="2ApZmkgY5DGCx3NIO9dn-76" style="edgeStyle=none;shape=connector;rounded=0;orthogonalLoop=1;jettySize=auto;html=1;labelBackgroundColor=default;strokeColor=#DDA15E;align=center;verticalAlign=middle;fontFamily=Helvetica;fontSize=11;fontColor=#FEFAE0;endArrow=none;endFill=0;fillColor=#BC6C25;" edge="1" parent="1" source="2ApZmkgY5DGCx3NIO9dn-1" target="2ApZmkgY5DGCx3NIO9dn-31">
          <mxGeometry relative="1" as="geometry" />
        </mxCell>
        <mxCell id="2ApZmkgY5DGCx3NIO9dn-77" style="edgeStyle=none;shape=connector;rounded=0;orthogonalLoop=1;jettySize=auto;html=1;labelBackgroundColor=default;strokeColor=#DDA15E;align=center;verticalAlign=middle;fontFamily=Helvetica;fontSize=11;fontColor=#FEFAE0;endArrow=none;endFill=0;fillColor=#BC6C25;" edge="1" parent="1" source="2ApZmkgY5DGCx3NIO9dn-1" target="2ApZmkgY5DGCx3NIO9dn-30">
          <mxGeometry relative="1" as="geometry" />
        </mxCell>
        <mxCell id="2ApZmkgY5DGCx3NIO9dn-78" style="edgeStyle=none;shape=connector;rounded=0;orthogonalLoop=1;jettySize=auto;html=1;labelBackgroundColor=default;strokeColor=#DDA15E;align=center;verticalAlign=middle;fontFamily=Helvetica;fontSize=11;fontColor=#FEFAE0;endArrow=none;endFill=0;fillColor=#BC6C25;" edge="1" parent="1" source="2ApZmkgY5DGCx3NIO9dn-1" target="2ApZmkgY5DGCx3NIO9dn-32">
          <mxGeometry relative="1" as="geometry" />
        </mxCell>
        <mxCell id="2ApZmkgY5DGCx3NIO9dn-1" value="SUCURSAL" style="whiteSpace=wrap;html=1;align=center;strokeColor=#DDA15E;fontColor=#FEFAE0;fillColor=#BC6C25;" vertex="1" parent="1">
          <mxGeometry x="40" y="80" width="100" height="40" as="geometry" />
        </mxCell>
        <mxCell id="2ApZmkgY5DGCx3NIO9dn-26" style="edgeStyle=none;shape=connector;rounded=0;orthogonalLoop=1;jettySize=auto;html=1;labelBackgroundColor=default;strokeColor=#DDA15E;align=center;verticalAlign=middle;fontFamily=Helvetica;fontSize=11;fontColor=#FEFAE0;endArrow=none;endFill=0;fillColor=#BC6C25;" edge="1" parent="1" source="2ApZmkgY5DGCx3NIO9dn-2" target="2ApZmkgY5DGCx3NIO9dn-18">
          <mxGeometry relative="1" as="geometry" />
        </mxCell>
        <mxCell id="2ApZmkgY5DGCx3NIO9dn-88" value="(1,N)" style="edgeLabel;html=1;align=center;verticalAlign=middle;resizable=0;points=[];fontSize=11;fontFamily=Helvetica;fontColor=#FEFAE0;" vertex="1" connectable="0" parent="2ApZmkgY5DGCx3NIO9dn-26">
          <mxGeometry x="-0.0714" y="3" relative="1" as="geometry">
            <mxPoint as="offset" />
          </mxGeometry>
        </mxCell>
        <mxCell id="2ApZmkgY5DGCx3NIO9dn-28" style="edgeStyle=none;shape=connector;rounded=0;orthogonalLoop=1;jettySize=auto;html=1;labelBackgroundColor=default;strokeColor=#DDA15E;align=center;verticalAlign=middle;fontFamily=Helvetica;fontSize=11;fontColor=#FEFAE0;endArrow=none;endFill=0;fillColor=#BC6C25;" edge="1" parent="1" source="2ApZmkgY5DGCx3NIO9dn-2" target="2ApZmkgY5DGCx3NIO9dn-19">
          <mxGeometry relative="1" as="geometry" />
        </mxCell>
        <mxCell id="2ApZmkgY5DGCx3NIO9dn-89" value="(1,N)" style="edgeLabel;html=1;align=center;verticalAlign=middle;resizable=0;points=[];fontSize=11;fontFamily=Helvetica;fontColor=#FEFAE0;" vertex="1" connectable="0" parent="2ApZmkgY5DGCx3NIO9dn-28">
          <mxGeometry x="0.0909" y="2" relative="1" as="geometry">
            <mxPoint as="offset" />
          </mxGeometry>
        </mxCell>
        <mxCell id="2ApZmkgY5DGCx3NIO9dn-70" style="edgeStyle=none;shape=connector;rounded=0;orthogonalLoop=1;jettySize=auto;html=1;labelBackgroundColor=default;strokeColor=#DDA15E;align=center;verticalAlign=middle;fontFamily=Helvetica;fontSize=11;fontColor=#FEFAE0;endArrow=none;endFill=0;fillColor=#BC6C25;" edge="1" parent="1" source="2ApZmkgY5DGCx3NIO9dn-2" target="2ApZmkgY5DGCx3NIO9dn-42">
          <mxGeometry relative="1" as="geometry" />
        </mxCell>
        <mxCell id="2ApZmkgY5DGCx3NIO9dn-71" style="edgeStyle=none;shape=connector;rounded=0;orthogonalLoop=1;jettySize=auto;html=1;labelBackgroundColor=default;strokeColor=#DDA15E;align=center;verticalAlign=middle;fontFamily=Helvetica;fontSize=11;fontColor=#FEFAE0;endArrow=none;endFill=0;fillColor=#BC6C25;" edge="1" parent="1" source="2ApZmkgY5DGCx3NIO9dn-2" target="2ApZmkgY5DGCx3NIO9dn-41">
          <mxGeometry relative="1" as="geometry" />
        </mxCell>
        <mxCell id="2ApZmkgY5DGCx3NIO9dn-72" style="edgeStyle=none;shape=connector;rounded=0;orthogonalLoop=1;jettySize=auto;html=1;labelBackgroundColor=default;strokeColor=#DDA15E;align=center;verticalAlign=middle;fontFamily=Helvetica;fontSize=11;fontColor=#FEFAE0;endArrow=none;endFill=0;fillColor=#BC6C25;" edge="1" parent="1" source="2ApZmkgY5DGCx3NIO9dn-2" target="2ApZmkgY5DGCx3NIO9dn-40">
          <mxGeometry relative="1" as="geometry" />
        </mxCell>
        <mxCell id="2ApZmkgY5DGCx3NIO9dn-2" value="CUENTA" style="shape=ext;margin=3;double=1;whiteSpace=wrap;html=1;align=center;strokeColor=#DDA15E;fontColor=#FEFAE0;fillColor=#BC6C25;" vertex="1" parent="1">
          <mxGeometry x="400" y="80" width="100" height="40" as="geometry" />
        </mxCell>
        <mxCell id="2ApZmkgY5DGCx3NIO9dn-75" style="edgeStyle=none;shape=connector;rounded=0;orthogonalLoop=1;jettySize=auto;html=1;labelBackgroundColor=default;strokeColor=#DDA15E;align=center;verticalAlign=middle;fontFamily=Helvetica;fontSize=11;fontColor=#FEFAE0;endArrow=none;endFill=0;fillColor=#BC6C25;" edge="1" parent="1" source="2ApZmkgY5DGCx3NIO9dn-5" target="2ApZmkgY5DGCx3NIO9dn-37">
          <mxGeometry relative="1" as="geometry" />
        </mxCell>
        <mxCell id="2ApZmkgY5DGCx3NIO9dn-5" value="" style="triangle;whiteSpace=wrap;html=1;rotation=91;strokeColor=#DDA15E;fontColor=#FEFAE0;fillColor=#BC6C25;" vertex="1" parent="1">
          <mxGeometry x="420" y="150" width="60" height="80" as="geometry" />
        </mxCell>
        <mxCell id="2ApZmkgY5DGCx3NIO9dn-6" value="" style="ellipse;whiteSpace=wrap;html=1;aspect=fixed;strokeColor=#DDA15E;fontColor=#FEFAE0;fillColor=#BC6C25;" vertex="1" parent="1">
          <mxGeometry x="445" y="140" width="10" height="10" as="geometry" />
        </mxCell>
        <mxCell id="2ApZmkgY5DGCx3NIO9dn-7" value="" style="endArrow=none;html=1;rounded=0;exitX=0.5;exitY=0;exitDx=0;exitDy=0;strokeColor=#DDA15E;fontColor=#FEFAE0;fillColor=#BC6C25;" edge="1" source="2ApZmkgY5DGCx3NIO9dn-6" parent="1">
          <mxGeometry relative="1" as="geometry">
            <mxPoint x="300" y="170" as="sourcePoint" />
            <mxPoint x="450" y="120" as="targetPoint" />
          </mxGeometry>
        </mxCell>
        <mxCell id="2ApZmkgY5DGCx3NIO9dn-8" value="" style="endArrow=none;html=1;rounded=0;entryX=0.5;entryY=1;entryDx=0;entryDy=0;strokeColor=#DDA15E;fontColor=#FEFAE0;fillColor=#BC6C25;" edge="1" source="2ApZmkgY5DGCx3NIO9dn-5" target="2ApZmkgY5DGCx3NIO9dn-6" parent="1">
          <mxGeometry relative="1" as="geometry">
            <mxPoint x="410" y="200" as="sourcePoint" />
            <mxPoint x="570" y="200" as="targetPoint" />
          </mxGeometry>
        </mxCell>
        <mxCell id="2ApZmkgY5DGCx3NIO9dn-73" style="edgeStyle=none;shape=connector;rounded=0;orthogonalLoop=1;jettySize=auto;html=1;labelBackgroundColor=default;strokeColor=#DDA15E;align=center;verticalAlign=middle;fontFamily=Helvetica;fontSize=11;fontColor=#FEFAE0;endArrow=none;endFill=0;fillColor=#BC6C25;" edge="1" parent="1" source="2ApZmkgY5DGCx3NIO9dn-10" target="2ApZmkgY5DGCx3NIO9dn-38">
          <mxGeometry relative="1" as="geometry" />
        </mxCell>
        <mxCell id="2ApZmkgY5DGCx3NIO9dn-10" value="AHORRO" style="whiteSpace=wrap;html=1;align=center;strokeColor=#DDA15E;fontColor=#FEFAE0;fillColor=#BC6C25;" vertex="1" parent="1">
          <mxGeometry x="330" y="250" width="80" height="40" as="geometry" />
        </mxCell>
        <mxCell id="2ApZmkgY5DGCx3NIO9dn-74" style="edgeStyle=none;shape=connector;rounded=0;orthogonalLoop=1;jettySize=auto;html=1;labelBackgroundColor=default;strokeColor=#DDA15E;align=center;verticalAlign=middle;fontFamily=Helvetica;fontSize=11;fontColor=#FEFAE0;endArrow=none;endFill=0;fillColor=#BC6C25;" edge="1" parent="1" source="2ApZmkgY5DGCx3NIO9dn-11" target="2ApZmkgY5DGCx3NIO9dn-39">
          <mxGeometry relative="1" as="geometry" />
        </mxCell>
        <mxCell id="2ApZmkgY5DGCx3NIO9dn-11" value="CORRIENTE" style="whiteSpace=wrap;html=1;align=center;strokeColor=#DDA15E;fontColor=#FEFAE0;fillColor=#BC6C25;" vertex="1" parent="1">
          <mxGeometry x="490" y="250" width="80" height="40" as="geometry" />
        </mxCell>
        <mxCell id="2ApZmkgY5DGCx3NIO9dn-12" value="" style="endArrow=none;html=1;rounded=0;strokeColor=#DDA15E;fontColor=#FEFAE0;fillColor=#BC6C25;" edge="1" source="2ApZmkgY5DGCx3NIO9dn-5" target="2ApZmkgY5DGCx3NIO9dn-11" parent="1">
          <mxGeometry relative="1" as="geometry">
            <mxPoint x="460" y="229" as="sourcePoint" />
            <mxPoint x="460" y="260" as="targetPoint" />
          </mxGeometry>
        </mxCell>
        <mxCell id="2ApZmkgY5DGCx3NIO9dn-80" value="(0,1)" style="edgeLabel;html=1;align=center;verticalAlign=middle;resizable=0;points=[];fontSize=11;fontFamily=Helvetica;fontColor=#FEFAE0;" vertex="1" connectable="0" parent="2ApZmkgY5DGCx3NIO9dn-12">
          <mxGeometry x="-0.3322" y="1" relative="1" as="geometry">
            <mxPoint as="offset" />
          </mxGeometry>
        </mxCell>
        <mxCell id="2ApZmkgY5DGCx3NIO9dn-13" value="" style="endArrow=none;html=1;rounded=0;strokeColor=#DDA15E;fontColor=#FEFAE0;fillColor=#BC6C25;" edge="1" source="2ApZmkgY5DGCx3NIO9dn-5" target="2ApZmkgY5DGCx3NIO9dn-10" parent="1">
          <mxGeometry relative="1" as="geometry">
            <mxPoint x="472" y="212" as="sourcePoint" />
            <mxPoint x="520" y="260" as="targetPoint" />
          </mxGeometry>
        </mxCell>
        <mxCell id="2ApZmkgY5DGCx3NIO9dn-79" value="(0,1)" style="edgeLabel;html=1;align=center;verticalAlign=middle;resizable=0;points=[];fontSize=11;fontFamily=Helvetica;fontColor=#FEFAE0;" vertex="1" connectable="0" parent="2ApZmkgY5DGCx3NIO9dn-13">
          <mxGeometry x="-0.2824" y="2" relative="1" as="geometry">
            <mxPoint y="1" as="offset" />
          </mxGeometry>
        </mxCell>
        <mxCell id="2ApZmkgY5DGCx3NIO9dn-14" value="" style="endArrow=none;html=1;rounded=0;edgeStyle=orthogonalEdgeStyle;curved=1;strokeColor=#DDA15E;fontColor=#FEFAE0;fillColor=#BC6C25;" edge="1" parent="1">
          <mxGeometry width="50" height="50" relative="1" as="geometry">
            <mxPoint x="382.5" y="207" as="sourcePoint" />
            <mxPoint x="517.5" y="203" as="targetPoint" />
            <Array as="points">
              <mxPoint x="382.5" y="230" />
              <mxPoint x="517.5" y="230" />
            </Array>
          </mxGeometry>
        </mxCell>
        <mxCell id="2ApZmkgY5DGCx3NIO9dn-24" style="edgeStyle=none;shape=connector;rounded=0;orthogonalLoop=1;jettySize=auto;html=1;labelBackgroundColor=default;strokeColor=#DDA15E;align=center;verticalAlign=middle;fontFamily=Helvetica;fontSize=11;fontColor=#FEFAE0;endArrow=none;endFill=0;fillColor=#BC6C25;" edge="1" parent="1" source="2ApZmkgY5DGCx3NIO9dn-15" target="2ApZmkgY5DGCx3NIO9dn-21">
          <mxGeometry relative="1" as="geometry" />
        </mxCell>
        <mxCell id="2ApZmkgY5DGCx3NIO9dn-87" value="(0,N)" style="edgeLabel;html=1;align=center;verticalAlign=middle;resizable=0;points=[];fontSize=11;fontFamily=Helvetica;fontColor=#FEFAE0;" vertex="1" connectable="0" parent="2ApZmkgY5DGCx3NIO9dn-24">
          <mxGeometry x="-0.0025" relative="1" as="geometry">
            <mxPoint as="offset" />
          </mxGeometry>
        </mxCell>
        <mxCell id="2ApZmkgY5DGCx3NIO9dn-63" style="edgeStyle=none;shape=connector;rounded=0;orthogonalLoop=1;jettySize=auto;html=1;labelBackgroundColor=default;strokeColor=#DDA15E;align=center;verticalAlign=middle;fontFamily=Helvetica;fontSize=11;fontColor=#FEFAE0;endArrow=none;endFill=0;fillColor=#BC6C25;" edge="1" parent="1" source="2ApZmkgY5DGCx3NIO9dn-15" target="2ApZmkgY5DGCx3NIO9dn-57">
          <mxGeometry relative="1" as="geometry" />
        </mxCell>
        <mxCell id="2ApZmkgY5DGCx3NIO9dn-64" style="edgeStyle=none;shape=connector;rounded=0;orthogonalLoop=1;jettySize=auto;html=1;labelBackgroundColor=default;strokeColor=#DDA15E;align=center;verticalAlign=middle;fontFamily=Helvetica;fontSize=11;fontColor=#FEFAE0;endArrow=none;endFill=0;fillColor=#BC6C25;" edge="1" parent="1" source="2ApZmkgY5DGCx3NIO9dn-15" target="2ApZmkgY5DGCx3NIO9dn-58">
          <mxGeometry relative="1" as="geometry" />
        </mxCell>
        <mxCell id="2ApZmkgY5DGCx3NIO9dn-65" style="edgeStyle=none;shape=connector;rounded=0;orthogonalLoop=1;jettySize=auto;html=1;labelBackgroundColor=default;strokeColor=#DDA15E;align=center;verticalAlign=middle;fontFamily=Helvetica;fontSize=11;fontColor=#FEFAE0;endArrow=none;endFill=0;fillColor=#BC6C25;" edge="1" parent="1" source="2ApZmkgY5DGCx3NIO9dn-15" target="2ApZmkgY5DGCx3NIO9dn-56">
          <mxGeometry relative="1" as="geometry" />
        </mxCell>
        <mxCell id="2ApZmkgY5DGCx3NIO9dn-15" value="MOVIMIENTOS" style="shape=ext;margin=3;double=1;whiteSpace=wrap;html=1;align=center;strokeColor=#DDA15E;fontColor=#FEFAE0;fillColor=#BC6C25;" vertex="1" parent="1">
          <mxGeometry x="760" y="310" width="100" height="40" as="geometry" />
        </mxCell>
        <mxCell id="2ApZmkgY5DGCx3NIO9dn-22" style="rounded=0;orthogonalLoop=1;jettySize=auto;html=1;strokeColor=#DDA15E;fontColor=#FEFAE0;fillColor=#BC6C25;endArrow=none;endFill=0;" edge="1" parent="1" source="2ApZmkgY5DGCx3NIO9dn-16" target="2ApZmkgY5DGCx3NIO9dn-20">
          <mxGeometry relative="1" as="geometry" />
        </mxCell>
        <mxCell id="2ApZmkgY5DGCx3NIO9dn-85" value="(1,1)" style="edgeLabel;html=1;align=center;verticalAlign=middle;resizable=0;points=[];fontSize=11;fontFamily=Helvetica;fontColor=#FEFAE0;" vertex="1" connectable="0" parent="2ApZmkgY5DGCx3NIO9dn-22">
          <mxGeometry x="0.2496" y="-2" relative="1" as="geometry">
            <mxPoint as="offset" />
          </mxGeometry>
        </mxCell>
        <mxCell id="2ApZmkgY5DGCx3NIO9dn-61" style="edgeStyle=none;shape=connector;rounded=0;orthogonalLoop=1;jettySize=auto;html=1;labelBackgroundColor=default;strokeColor=#DDA15E;align=center;verticalAlign=middle;fontFamily=Helvetica;fontSize=11;fontColor=#FEFAE0;endArrow=none;endFill=0;fillColor=#BC6C25;" edge="1" parent="1" source="2ApZmkgY5DGCx3NIO9dn-16" target="2ApZmkgY5DGCx3NIO9dn-60">
          <mxGeometry relative="1" as="geometry" />
        </mxCell>
        <mxCell id="2ApZmkgY5DGCx3NIO9dn-62" style="edgeStyle=none;shape=connector;rounded=0;orthogonalLoop=1;jettySize=auto;html=1;labelBackgroundColor=default;strokeColor=#DDA15E;align=center;verticalAlign=middle;fontFamily=Helvetica;fontSize=11;fontColor=#FEFAE0;endArrow=none;endFill=0;fillColor=#BC6C25;" edge="1" parent="1" source="2ApZmkgY5DGCx3NIO9dn-16" target="2ApZmkgY5DGCx3NIO9dn-59">
          <mxGeometry relative="1" as="geometry" />
        </mxCell>
        <mxCell id="2ApZmkgY5DGCx3NIO9dn-16" value="TIPO_MOVIMIENTO" style="whiteSpace=wrap;html=1;align=center;strokeColor=#DDA15E;fontColor=#FEFAE0;fillColor=#BC6C25;" vertex="1" parent="1">
          <mxGeometry x="750" y="600" width="110" height="40" as="geometry" />
        </mxCell>
        <mxCell id="2ApZmkgY5DGCx3NIO9dn-66" style="edgeStyle=none;shape=connector;rounded=0;orthogonalLoop=1;jettySize=auto;html=1;labelBackgroundColor=default;strokeColor=#DDA15E;align=center;verticalAlign=middle;fontFamily=Helvetica;fontSize=11;fontColor=#FEFAE0;endArrow=none;endFill=0;fillColor=#BC6C25;" edge="1" parent="1" source="2ApZmkgY5DGCx3NIO9dn-17" target="2ApZmkgY5DGCx3NIO9dn-45">
          <mxGeometry relative="1" as="geometry" />
        </mxCell>
        <mxCell id="2ApZmkgY5DGCx3NIO9dn-67" style="edgeStyle=none;shape=connector;rounded=0;orthogonalLoop=1;jettySize=auto;html=1;labelBackgroundColor=default;strokeColor=#DDA15E;align=center;verticalAlign=middle;fontFamily=Helvetica;fontSize=11;fontColor=#FEFAE0;endArrow=none;endFill=0;fillColor=#BC6C25;" edge="1" parent="1" source="2ApZmkgY5DGCx3NIO9dn-17" target="2ApZmkgY5DGCx3NIO9dn-44">
          <mxGeometry relative="1" as="geometry" />
        </mxCell>
        <mxCell id="2ApZmkgY5DGCx3NIO9dn-68" style="edgeStyle=none;shape=connector;rounded=0;orthogonalLoop=1;jettySize=auto;html=1;labelBackgroundColor=default;strokeColor=#DDA15E;align=center;verticalAlign=middle;fontFamily=Helvetica;fontSize=11;fontColor=#FEFAE0;endArrow=none;endFill=0;fillColor=#BC6C25;" edge="1" parent="1" source="2ApZmkgY5DGCx3NIO9dn-17" target="2ApZmkgY5DGCx3NIO9dn-43">
          <mxGeometry relative="1" as="geometry" />
        </mxCell>
        <mxCell id="2ApZmkgY5DGCx3NIO9dn-69" style="edgeStyle=none;shape=connector;rounded=0;orthogonalLoop=1;jettySize=auto;html=1;labelBackgroundColor=default;strokeColor=#DDA15E;align=center;verticalAlign=middle;fontFamily=Helvetica;fontSize=11;fontColor=#FEFAE0;endArrow=none;endFill=0;fillColor=#BC6C25;" edge="1" parent="1" source="2ApZmkgY5DGCx3NIO9dn-17" target="2ApZmkgY5DGCx3NIO9dn-52">
          <mxGeometry relative="1" as="geometry" />
        </mxCell>
        <mxCell id="2ApZmkgY5DGCx3NIO9dn-17" value="CLIENTE" style="whiteSpace=wrap;html=1;align=center;strokeColor=#DDA15E;fontColor=#FEFAE0;fillColor=#BC6C25;" vertex="1" parent="1">
          <mxGeometry x="827" y="80" width="100" height="40" as="geometry" />
        </mxCell>
        <mxCell id="2ApZmkgY5DGCx3NIO9dn-27" style="edgeStyle=none;shape=connector;rounded=0;orthogonalLoop=1;jettySize=auto;html=1;labelBackgroundColor=default;strokeColor=#DDA15E;align=center;verticalAlign=middle;fontFamily=Helvetica;fontSize=11;fontColor=#FEFAE0;endArrow=none;endFill=0;fillColor=#BC6C25;" edge="1" parent="1" source="2ApZmkgY5DGCx3NIO9dn-18" target="2ApZmkgY5DGCx3NIO9dn-1">
          <mxGeometry relative="1" as="geometry" />
        </mxCell>
        <mxCell id="2ApZmkgY5DGCx3NIO9dn-81" value="(1,1)" style="edgeLabel;html=1;align=center;verticalAlign=middle;resizable=0;points=[];fontSize=11;fontFamily=Helvetica;fontColor=#FEFAE0;" vertex="1" connectable="0" parent="2ApZmkgY5DGCx3NIO9dn-27">
          <mxGeometry x="-0.1786" relative="1" as="geometry">
            <mxPoint as="offset" />
          </mxGeometry>
        </mxCell>
        <mxCell id="2ApZmkgY5DGCx3NIO9dn-18" value="Tiene" style="shape=rhombus;perimeter=rhombusPerimeter;whiteSpace=wrap;html=1;align=center;strokeColor=#DDA15E;fontColor=#FEFAE0;fillColor=#BC6C25;" vertex="1" parent="1">
          <mxGeometry x="210" y="70" width="120" height="60" as="geometry" />
        </mxCell>
        <mxCell id="2ApZmkgY5DGCx3NIO9dn-29" style="edgeStyle=none;shape=connector;rounded=0;orthogonalLoop=1;jettySize=auto;html=1;labelBackgroundColor=default;strokeColor=#DDA15E;align=center;verticalAlign=middle;fontFamily=Helvetica;fontSize=11;fontColor=#FEFAE0;endArrow=none;endFill=0;fillColor=#BC6C25;" edge="1" parent="1" source="2ApZmkgY5DGCx3NIO9dn-19" target="2ApZmkgY5DGCx3NIO9dn-17">
          <mxGeometry relative="1" as="geometry" />
        </mxCell>
        <mxCell id="2ApZmkgY5DGCx3NIO9dn-82" value="(1,1)" style="edgeLabel;html=1;align=center;verticalAlign=middle;resizable=0;points=[];fontSize=11;fontFamily=Helvetica;fontColor=#FEFAE0;" vertex="1" connectable="0" parent="2ApZmkgY5DGCx3NIO9dn-29">
          <mxGeometry x="0.0567" y="1" relative="1" as="geometry">
            <mxPoint y="-1" as="offset" />
          </mxGeometry>
        </mxCell>
        <mxCell id="2ApZmkgY5DGCx3NIO9dn-19" value="Propiedad de" style="shape=rhombus;perimeter=rhombusPerimeter;whiteSpace=wrap;html=1;align=center;strokeColor=#DDA15E;fontColor=#FEFAE0;fillColor=#BC6C25;" vertex="1" parent="1">
          <mxGeometry x="610" y="70" width="120" height="60" as="geometry" />
        </mxCell>
        <mxCell id="2ApZmkgY5DGCx3NIO9dn-23" style="edgeStyle=none;shape=connector;rounded=0;orthogonalLoop=1;jettySize=auto;html=1;labelBackgroundColor=default;strokeColor=#DDA15E;align=center;verticalAlign=middle;fontFamily=Helvetica;fontSize=11;fontColor=#FEFAE0;endArrow=none;endFill=0;fillColor=#BC6C25;" edge="1" parent="1" source="2ApZmkgY5DGCx3NIO9dn-20" target="2ApZmkgY5DGCx3NIO9dn-15">
          <mxGeometry relative="1" as="geometry" />
        </mxCell>
        <mxCell id="2ApZmkgY5DGCx3NIO9dn-86" value="(0,N)" style="edgeLabel;html=1;align=center;verticalAlign=middle;resizable=0;points=[];fontSize=11;fontFamily=Helvetica;fontColor=#FEFAE0;" vertex="1" connectable="0" parent="2ApZmkgY5DGCx3NIO9dn-23">
          <mxGeometry x="0.05" y="3" relative="1" as="geometry">
            <mxPoint x="1" as="offset" />
          </mxGeometry>
        </mxCell>
        <mxCell id="2ApZmkgY5DGCx3NIO9dn-20" value="Es de" style="shape=rhombus;perimeter=rhombusPerimeter;whiteSpace=wrap;html=1;align=center;strokeColor=#DDA15E;fontColor=#FEFAE0;fillColor=#BC6C25;" vertex="1" parent="1">
          <mxGeometry x="750" y="460" width="120" height="60" as="geometry" />
        </mxCell>
        <mxCell id="2ApZmkgY5DGCx3NIO9dn-25" style="edgeStyle=none;shape=connector;rounded=0;orthogonalLoop=1;jettySize=auto;html=1;labelBackgroundColor=default;strokeColor=#DDA15E;align=center;verticalAlign=middle;fontFamily=Helvetica;fontSize=11;fontColor=#FEFAE0;endArrow=none;endFill=0;fillColor=#BC6C25;" edge="1" parent="1" source="2ApZmkgY5DGCx3NIO9dn-21" target="2ApZmkgY5DGCx3NIO9dn-2">
          <mxGeometry relative="1" as="geometry" />
        </mxCell>
        <mxCell id="2ApZmkgY5DGCx3NIO9dn-84" value="(1,1)" style="edgeLabel;html=1;align=center;verticalAlign=middle;resizable=0;points=[];fontSize=11;fontFamily=Helvetica;fontColor=#FEFAE0;" vertex="1" connectable="0" parent="2ApZmkgY5DGCx3NIO9dn-25">
          <mxGeometry x="-0.0282" y="3" relative="1" as="geometry">
            <mxPoint as="offset" />
          </mxGeometry>
        </mxCell>
        <mxCell id="2ApZmkgY5DGCx3NIO9dn-21" value="Realiza" style="shape=rhombus;perimeter=rhombusPerimeter;whiteSpace=wrap;html=1;align=center;strokeColor=#DDA15E;fontColor=#FEFAE0;fillColor=#BC6C25;" vertex="1" parent="1">
          <mxGeometry x="610" y="200" width="120" height="60" as="geometry" />
        </mxCell>
        <mxCell id="2ApZmkgY5DGCx3NIO9dn-30" value="ID" style="ellipse;whiteSpace=wrap;html=1;align=center;fontStyle=4;strokeColor=#DDA15E;fontFamily=Helvetica;fontSize=11;fontColor=#FEFAE0;fillColor=#BC6C25;" vertex="1" parent="1">
          <mxGeometry x="-80" width="100" height="40" as="geometry" />
        </mxCell>
        <mxCell id="2ApZmkgY5DGCx3NIO9dn-46" style="edgeStyle=none;shape=connector;rounded=0;orthogonalLoop=1;jettySize=auto;html=1;labelBackgroundColor=default;strokeColor=#DDA15E;align=center;verticalAlign=middle;fontFamily=Helvetica;fontSize=11;fontColor=#FEFAE0;endArrow=none;endFill=0;fillColor=#BC6C25;" edge="1" parent="1" source="2ApZmkgY5DGCx3NIO9dn-31" target="2ApZmkgY5DGCx3NIO9dn-34">
          <mxGeometry relative="1" as="geometry" />
        </mxCell>
        <mxCell id="2ApZmkgY5DGCx3NIO9dn-47" style="edgeStyle=none;shape=connector;rounded=0;orthogonalLoop=1;jettySize=auto;html=1;labelBackgroundColor=default;strokeColor=#DDA15E;align=center;verticalAlign=middle;fontFamily=Helvetica;fontSize=11;fontColor=#FEFAE0;endArrow=none;endFill=0;fillColor=#BC6C25;" edge="1" parent="1" source="2ApZmkgY5DGCx3NIO9dn-31" target="2ApZmkgY5DGCx3NIO9dn-35">
          <mxGeometry relative="1" as="geometry" />
        </mxCell>
        <mxCell id="2ApZmkgY5DGCx3NIO9dn-48" style="edgeStyle=none;shape=connector;rounded=0;orthogonalLoop=1;jettySize=auto;html=1;labelBackgroundColor=default;strokeColor=#DDA15E;align=center;verticalAlign=middle;fontFamily=Helvetica;fontSize=11;fontColor=#FEFAE0;endArrow=none;endFill=0;fillColor=#BC6C25;" edge="1" parent="1" source="2ApZmkgY5DGCx3NIO9dn-31" target="2ApZmkgY5DGCx3NIO9dn-36">
          <mxGeometry relative="1" as="geometry" />
        </mxCell>
        <mxCell id="2ApZmkgY5DGCx3NIO9dn-31" value="Direccion" style="ellipse;whiteSpace=wrap;html=1;align=center;strokeColor=#DDA15E;fontFamily=Helvetica;fontSize=11;fontColor=#FEFAE0;fillColor=#BC6C25;" vertex="1" parent="1">
          <mxGeometry x="20" y="-40" width="100" height="40" as="geometry" />
        </mxCell>
        <mxCell id="2ApZmkgY5DGCx3NIO9dn-32" value="Telefono" style="ellipse;whiteSpace=wrap;html=1;align=center;strokeColor=#DDA15E;fontFamily=Helvetica;fontSize=11;fontColor=#FEFAE0;fillColor=#BC6C25;" vertex="1" parent="1">
          <mxGeometry x="-90" y="60" width="100" height="40" as="geometry" />
        </mxCell>
        <mxCell id="2ApZmkgY5DGCx3NIO9dn-34" value="Calle" style="ellipse;whiteSpace=wrap;html=1;align=center;strokeColor=#DDA15E;fontFamily=Helvetica;fontSize=11;fontColor=#FEFAE0;fillColor=#BC6C25;" vertex="1" parent="1">
          <mxGeometry x="-70" y="-120" width="100" height="40" as="geometry" />
        </mxCell>
        <mxCell id="2ApZmkgY5DGCx3NIO9dn-35" value="Numero" style="ellipse;whiteSpace=wrap;html=1;align=center;strokeColor=#DDA15E;fontFamily=Helvetica;fontSize=11;fontColor=#FEFAE0;fillColor=#BC6C25;" vertex="1" parent="1">
          <mxGeometry x="20" y="-150" width="100" height="40" as="geometry" />
        </mxCell>
        <mxCell id="2ApZmkgY5DGCx3NIO9dn-36" value="Localidad" style="ellipse;whiteSpace=wrap;html=1;align=center;strokeColor=#DDA15E;fontFamily=Helvetica;fontSize=11;fontColor=#FEFAE0;fillColor=#BC6C25;" vertex="1" parent="1">
          <mxGeometry x="110" y="-110" width="100" height="40" as="geometry" />
        </mxCell>
        <mxCell id="2ApZmkgY5DGCx3NIO9dn-37" value="Tipo_Cuenta" style="ellipse;whiteSpace=wrap;html=1;align=center;strokeColor=#DDA15E;fontFamily=Helvetica;fontSize=11;fontColor=#FEFAE0;fillColor=#BC6C25;" vertex="1" parent="1">
          <mxGeometry x="220" y="160" width="100" height="40" as="geometry" />
        </mxCell>
        <mxCell id="2ApZmkgY5DGCx3NIO9dn-38" value="Tipo_Interes" style="ellipse;whiteSpace=wrap;html=1;align=center;strokeColor=#DDA15E;fontFamily=Helvetica;fontSize=11;fontColor=#FEFAE0;fillColor=#BC6C25;" vertex="1" parent="1">
          <mxGeometry x="240" y="340" width="100" height="40" as="geometry" />
        </mxCell>
        <mxCell id="2ApZmkgY5DGCx3NIO9dn-39" value="Cantidad_Descubierto" style="ellipse;whiteSpace=wrap;html=1;align=center;strokeColor=#DDA15E;fontFamily=Helvetica;fontSize=11;fontColor=#FEFAE0;fillColor=#BC6C25;" vertex="1" parent="1">
          <mxGeometry x="460" y="350" width="130" height="40" as="geometry" />
        </mxCell>
        <mxCell id="2ApZmkgY5DGCx3NIO9dn-40" value="Saldo" style="ellipse;whiteSpace=wrap;html=1;align=center;strokeColor=#DDA15E;fontFamily=Helvetica;fontSize=11;fontColor=#FEFAE0;fillColor=#BC6C25;" vertex="1" parent="1">
          <mxGeometry x="330" width="100" height="40" as="geometry" />
        </mxCell>
        <mxCell id="2ApZmkgY5DGCx3NIO9dn-41" value="N_Cuenta" style="ellipse;whiteSpace=wrap;html=1;align=center;fontStyle=4;strokeColor=#DDA15E;fontFamily=Helvetica;fontSize=11;fontColor=#FEFAE0;fillColor=#BC6C25;" vertex="1" parent="1">
          <mxGeometry x="410" y="-50" width="100" height="40" as="geometry" />
        </mxCell>
        <mxCell id="2ApZmkgY5DGCx3NIO9dn-42" value="Fecha_Apertura" style="ellipse;whiteSpace=wrap;html=1;align=center;strokeColor=#DDA15E;fontFamily=Helvetica;fontSize=11;fontColor=#FEFAE0;fillColor=#BC6C25;" vertex="1" parent="1">
          <mxGeometry x="470" width="100" height="40" as="geometry" />
        </mxCell>
        <mxCell id="2ApZmkgY5DGCx3NIO9dn-43" value="ID_Cliente" style="ellipse;whiteSpace=wrap;html=1;align=center;fontStyle=4;strokeColor=#DDA15E;fontFamily=Helvetica;fontSize=11;fontColor=#FEFAE0;fillColor=#BC6C25;" vertex="1" parent="1">
          <mxGeometry x="950" y="70" width="100" height="40" as="geometry" />
        </mxCell>
        <mxCell id="2ApZmkgY5DGCx3NIO9dn-44" value="Telefono" style="ellipse;whiteSpace=wrap;html=1;align=center;strokeColor=#DDA15E;fontFamily=Helvetica;fontSize=11;fontColor=#FEFAE0;fillColor=#BC6C25;" vertex="1" parent="1">
          <mxGeometry x="960" y="140" width="100" height="40" as="geometry" />
        </mxCell>
        <mxCell id="2ApZmkgY5DGCx3NIO9dn-45" value="Nombre" style="ellipse;whiteSpace=wrap;html=1;align=center;strokeColor=#DDA15E;fontFamily=Helvetica;fontSize=11;fontColor=#FEFAE0;fillColor=#BC6C25;" vertex="1" parent="1">
          <mxGeometry x="840" y="160" width="100" height="40" as="geometry" />
        </mxCell>
        <mxCell id="2ApZmkgY5DGCx3NIO9dn-49" style="edgeStyle=none;shape=connector;rounded=0;orthogonalLoop=1;jettySize=auto;html=1;labelBackgroundColor=default;strokeColor=#DDA15E;align=center;verticalAlign=middle;fontFamily=Helvetica;fontSize=11;fontColor=#FEFAE0;endArrow=none;endFill=0;fillColor=#BC6C25;" edge="1" parent="1" source="2ApZmkgY5DGCx3NIO9dn-52" target="2ApZmkgY5DGCx3NIO9dn-53">
          <mxGeometry relative="1" as="geometry" />
        </mxCell>
        <mxCell id="2ApZmkgY5DGCx3NIO9dn-50" style="edgeStyle=none;shape=connector;rounded=0;orthogonalLoop=1;jettySize=auto;html=1;labelBackgroundColor=default;strokeColor=#DDA15E;align=center;verticalAlign=middle;fontFamily=Helvetica;fontSize=11;fontColor=#FEFAE0;endArrow=none;endFill=0;fillColor=#BC6C25;" edge="1" parent="1" source="2ApZmkgY5DGCx3NIO9dn-52" target="2ApZmkgY5DGCx3NIO9dn-54">
          <mxGeometry relative="1" as="geometry" />
        </mxCell>
        <mxCell id="2ApZmkgY5DGCx3NIO9dn-51" style="edgeStyle=none;shape=connector;rounded=0;orthogonalLoop=1;jettySize=auto;html=1;labelBackgroundColor=default;strokeColor=#DDA15E;align=center;verticalAlign=middle;fontFamily=Helvetica;fontSize=11;fontColor=#FEFAE0;endArrow=none;endFill=0;fillColor=#BC6C25;" edge="1" parent="1" source="2ApZmkgY5DGCx3NIO9dn-52" target="2ApZmkgY5DGCx3NIO9dn-55">
          <mxGeometry relative="1" as="geometry" />
        </mxCell>
        <mxCell id="2ApZmkgY5DGCx3NIO9dn-52" value="Direccion" style="ellipse;whiteSpace=wrap;html=1;align=center;strokeColor=#DDA15E;fontFamily=Helvetica;fontSize=11;fontColor=#FEFAE0;fillColor=#BC6C25;" vertex="1" parent="1">
          <mxGeometry x="827" y="-30" width="100" height="40" as="geometry" />
        </mxCell>
        <mxCell id="2ApZmkgY5DGCx3NIO9dn-53" value="Calle" style="ellipse;whiteSpace=wrap;html=1;align=center;strokeColor=#DDA15E;fontFamily=Helvetica;fontSize=11;fontColor=#FEFAE0;fillColor=#BC6C25;" vertex="1" parent="1">
          <mxGeometry x="737" y="-110" width="100" height="40" as="geometry" />
        </mxCell>
        <mxCell id="2ApZmkgY5DGCx3NIO9dn-54" value="Numero" style="ellipse;whiteSpace=wrap;html=1;align=center;strokeColor=#DDA15E;fontFamily=Helvetica;fontSize=11;fontColor=#FEFAE0;fillColor=#BC6C25;" vertex="1" parent="1">
          <mxGeometry x="827" y="-140" width="100" height="40" as="geometry" />
        </mxCell>
        <mxCell id="2ApZmkgY5DGCx3NIO9dn-55" value="Localidad" style="ellipse;whiteSpace=wrap;html=1;align=center;strokeColor=#DDA15E;fontFamily=Helvetica;fontSize=11;fontColor=#FEFAE0;fillColor=#BC6C25;" vertex="1" parent="1">
          <mxGeometry x="917" y="-100" width="100" height="40" as="geometry" />
        </mxCell>
        <mxCell id="2ApZmkgY5DGCx3NIO9dn-56" value="Cantidad_Implicada" style="ellipse;whiteSpace=wrap;html=1;align=center;strokeColor=#DDA15E;fontFamily=Helvetica;fontSize=11;fontColor=#FEFAE0;fillColor=#BC6C25;" vertex="1" parent="1">
          <mxGeometry x="880" y="270" width="100" height="40" as="geometry" />
        </mxCell>
        <mxCell id="2ApZmkgY5DGCx3NIO9dn-57" value="Fecha" style="ellipse;whiteSpace=wrap;html=1;align=center;strokeColor=#DDA15E;fontFamily=Helvetica;fontSize=11;fontColor=#FEFAE0;fillColor=#BC6C25;" vertex="1" parent="1">
          <mxGeometry x="880" y="370" width="100" height="40" as="geometry" />
        </mxCell>
        <mxCell id="2ApZmkgY5DGCx3NIO9dn-58" value="ID_Movimiento" style="ellipse;whiteSpace=wrap;html=1;align=center;fontStyle=4;strokeColor=#DDA15E;fontFamily=Helvetica;fontSize=11;fontColor=#FEFAE0;fillColor=#BC6C25;" vertex="1" parent="1">
          <mxGeometry x="910" y="320" width="100" height="40" as="geometry" />
        </mxCell>
        <mxCell id="2ApZmkgY5DGCx3NIO9dn-59" value="ID_Tipo_Mov" style="ellipse;whiteSpace=wrap;html=1;align=center;fontStyle=4;strokeColor=#DDA15E;fontFamily=Helvetica;fontSize=11;fontColor=#FEFAE0;fillColor=#BC6C25;" vertex="1" parent="1">
          <mxGeometry x="700" y="700" width="100" height="40" as="geometry" />
        </mxCell>
        <mxCell id="2ApZmkgY5DGCx3NIO9dn-60" value="Descripcion" style="ellipse;whiteSpace=wrap;html=1;align=center;strokeColor=#DDA15E;fontFamily=Helvetica;fontSize=11;fontColor=#FEFAE0;fillColor=#BC6C25;" vertex="1" parent="1">
          <mxGeometry x="827" y="700" width="100" height="40" as="geometry" />
        </mxCell>
        <mxCell id="2ApZmkgY5DGCx3NIO9dn-83" value="(1,1)" style="text;html=1;align=center;verticalAlign=middle;resizable=0;points=[];autosize=1;strokeColor=none;fillColor=none;fontSize=11;fontFamily=Helvetica;fontColor=#FEFAE0;" vertex="1" parent="1">
          <mxGeometry x="395" y="118" width="50" height="30" as="geometry" />
        </mxCell>
        <mxCell id="2ApZmkgY5DGCx3NIO9dn-90" value="&lt;font style=&quot;font-size: 14px;&quot;&gt;&lt;b&gt;1:N&lt;/b&gt;&lt;/font&gt;" style="text;strokeColor=none;fillColor=none;spacingLeft=4;spacingRight=4;overflow=hidden;rotatable=0;points=[[0,0.5],[1,0.5]];portConstraint=eastwest;fontSize=11;whiteSpace=wrap;html=1;fontFamily=Helvetica;fontColor=#FEFAE0;" vertex="1" parent="1">
          <mxGeometry x="250" y="40" width="40" height="30" as="geometry" />
        </mxCell>
        <mxCell id="2ApZmkgY5DGCx3NIO9dn-91" value="&lt;font style=&quot;font-size: 14px;&quot;&gt;&lt;b&gt;N:1&lt;/b&gt;&lt;/font&gt;" style="text;strokeColor=none;fillColor=none;spacingLeft=4;spacingRight=4;overflow=hidden;rotatable=0;points=[[0,0.5],[1,0.5]];portConstraint=eastwest;fontSize=11;whiteSpace=wrap;html=1;fontFamily=Helvetica;fontColor=#FEFAE0;" vertex="1" parent="1">
          <mxGeometry x="660" y="40" width="40" height="30" as="geometry" />
        </mxCell>
        <mxCell id="2ApZmkgY5DGCx3NIO9dn-92" value="&lt;font style=&quot;font-size: 14px;&quot;&gt;&lt;b&gt;1:N&lt;/b&gt;&lt;/font&gt;" style="text;strokeColor=none;fillColor=none;spacingLeft=4;spacingRight=4;overflow=hidden;rotatable=0;points=[[0,0.5],[1,0.5]];portConstraint=eastwest;fontSize=11;whiteSpace=wrap;html=1;fontFamily=Helvetica;fontColor=#FEFAE0;" vertex="1" parent="1">
          <mxGeometry x="660" y="170" width="40" height="30" as="geometry" />
        </mxCell>
        <mxCell id="2ApZmkgY5DGCx3NIO9dn-93" value="&lt;font style=&quot;font-size: 14px;&quot;&gt;&lt;b&gt;N:1&lt;/b&gt;&lt;/font&gt;" style="text;strokeColor=none;fillColor=none;spacingLeft=4;spacingRight=4;overflow=hidden;rotatable=0;points=[[0,0.5],[1,0.5]];portConstraint=eastwest;fontSize=11;whiteSpace=wrap;html=1;fontFamily=Helvetica;fontColor=#FEFAE0;" vertex="1" parent="1">
          <mxGeometry x="877" y="475" width="40" height="30" as="geometry" />
        </mxCell>
      </root>
    </mxGraphModel>
  </diagram>
</mxfile>
